<svg xmlns="http://www.w3.org/2000/svg" xmlns:xlink="http://www.w3.org/1999/xlink" width="500" zoomAndPan="magnify" viewBox="0 0 375 374.999991" height="500" preserveAspectRatio="xMidYMid meet" version="1.0"><defs><clipPath id="87532c5cd8"><path d="M 104.011719 104 L 271.261719 104 L 271.261719 299 L 104.011719 299 Z M 104.011719 104 " clip-rule="nonzero"/></clipPath></defs><g clip-path="url(#87532c5cd8)"><path fill="#0f6b4d" d="M 256.015625 104.699219 L 194.6875 104.699219 L 183.871094 127.855469 C 184.15625 139.871094 184.859375 151.796875 186.277344 163.410156 L 187.023438 169.144531 C 187.246094 171.113281 187.648438 172.878906 187.945312 174.765625 L 188.953125 180.398438 L 190.179688 185.816406 C 190.9375 189.539062 192.023438 192.894531 193.058594 196.441406 L 193.441406 197.765625 L 193.894531 199.003906 L 194.574219 200.855469 L 212.605469 157.90625 C 215.617188 150.835938 218.101562 143.5 220.039062 135.882812 C 219.722656 140.839844 219.550781 146.617188 219.550781 153.273438 L 219.800781 164.667969 L 221.871094 220.929688 L 205.125 220.929688 C 205.765625 221.753906 206.429688 222.550781 207.109375 223.328125 C 208.164062 224.546875 209.355469 225.515625 210.484375 226.675781 C 211.683594 227.671875 212.941406 228.605469 214.226562 229.5625 C 216.882812 231.183594 219.742188 232.765625 222.886719 233.628906 C 226.035156 234.703125 229.417969 235.105469 232.949219 235.308594 C 236.449219 235.394531 240.085938 235.03125 243.757812 234.378906 C 251.058594 232.890625 258.492188 230.128906 265.386719 225.945312 Z M 265.386719 225.945312 C 260.207031 232.488281 253.917969 238.175781 246.730469 242.867188 C 243.097656 245.121094 239.242188 247.171875 235.078125 248.734375 C 230.90625 250.203125 226.484375 251.421875 221.84375 251.765625 C 217.210938 252.3125 212.441406 251.910156 207.636719 251.113281 C 205.296875 250.566406 202.910156 249.972656 200.570312 249.207031 C 198.316406 248.296875 195.925781 247.480469 193.738281 246.367188 C 184.839844 242.011719 176.945312 235.652344 170.316406 228.605469 C 163.632812 221.535156 157.722656 213.792969 152.699219 205.796875 C 151.679688 204.203125 150.664062 202.601562 149.65625 200.980469 L 103.972656 298.679688 L 153.464844 298.679688 L 168.707031 262.328125 L 223.339844 262.328125 L 224.558594 298.679688 L 271.019531 298.679688 L 265.386719 225.945312 " fill-opacity="1" fill-rule="nonzero"/></g><path fill="#b08441" d="M 186.144531 220.929688 C 182.765625 217.066406 179.734375 212.882812 176.945312 208.546875 C 171.667969 200.261719 167.488281 191.246094 164.1875 181.902344 C 163.488281 179.464844 162.703125 177.050781 161.980469 174.640625 C 161.320312 172.292969 160.695312 169.953125 160.246094 167.554688 C 159.746094 165.117188 159.074219 162.71875 158.710938 160.265625 L 157.648438 152.871094 C 157.472656 151.652344 157.242188 150.433594 157.136719 149.1875 L 156.878906 145.453125 L 156.34375 138.023438 C 156.167969 133.042969 156.285156 128.066406 156.253906 123.105469 L 147.910156 123.105469 C 147.921875 123.308594 147.941406 123.527344 147.960938 123.71875 C 148.304688 128.738281 148.5625 133.714844 149.0625 138.671875 L 150.144531 146.421875 L 150.691406 150.269531 C 150.882812 151.546875 151.210938 152.8125 151.460938 154.085938 L 153.121094 161.664062 C 153.667969 164.1875 154.539062 166.640625 155.21875 169.117188 C 156.253906 173.058594 157.742188 176.839844 159.191406 180.617188 C 159.574219 181.632812 159.957031 182.632812 160.332031 183.648438 C 164.398438 193.027344 169.328125 201.929688 175.296875 209.929688 C 181.230469 217.859375 188.082031 225.132812 196.058594 230.511719 C 192.472656 227.652344 189.164062 224.421875 186.144531 220.929688 " fill-opacity="1" fill-rule="nonzero"/><path fill="#b08441" d="M 154.742188 108.988281 L 155.171875 98.148438 L 169.023438 100.789062 L 165.644531 93.988281 L 155.554688 91.847656 L 156.132812 80.492188 L 152.082031 76.308594 L 148.027344 80.492188 L 148.613281 91.847656 L 138.511719 93.988281 L 135.144531 100.789062 L 148.984375 98.148438 L 149.417969 108.988281 L 145.378906 113.785156 L 145.148438 117.457031 L 152.082031 115.703125 L 159.007812 117.457031 L 158.777344 113.785156 L 154.742188 108.988281 " fill-opacity="1" fill-rule="nonzero"/></svg>