<svg xmlns="http://www.w3.org/2000/svg" xmlns:xlink="http://www.w3.org/1999/xlink" width="500" zoomAndPan="magnify" viewBox="0 0 375 374.999991" height="500" preserveAspectRatio="xMidYMid meet" version="1.0"><defs><g/><clipPath id="9e586facea"><path d="M 25.28125 153 L 93.53125 153 L 93.53125 233 L 25.28125 233 Z M 25.28125 153 " clip-rule="nonzero"/></clipPath></defs><g clip-path="url(#9e586facea)"><path fill="#0f6b4d" d="M 87.328125 153.703125 L 62.296875 153.703125 L 57.878906 163.152344 C 57.996094 168.058594 58.28125 172.925781 58.863281 177.667969 L 59.167969 180.007812 C 59.257812 180.8125 59.421875 181.53125 59.542969 182.300781 L 59.953125 184.601562 L 60.453125 186.8125 C 60.765625 188.332031 61.207031 189.703125 61.628906 191.152344 L 61.785156 191.691406 L 61.96875 192.195312 L 62.25 192.953125 L 69.609375 175.417969 C 70.839844 172.535156 71.851562 169.539062 72.644531 166.429688 C 72.515625 168.453125 72.445312 170.8125 72.445312 173.527344 L 72.546875 178.179688 L 73.390625 201.144531 L 66.554688 201.144531 C 66.816406 201.484375 67.085938 201.808594 67.367188 202.125 C 67.796875 202.621094 68.28125 203.019531 68.742188 203.492188 C 69.234375 203.898438 69.746094 204.277344 70.269531 204.671875 C 71.355469 205.332031 72.523438 205.976562 73.804688 206.332031 C 75.089844 206.769531 76.472656 206.933594 77.914062 207.015625 C 79.34375 207.050781 80.824219 206.902344 82.324219 206.636719 C 85.304688 206.027344 88.339844 204.902344 91.152344 203.195312 Z M 91.152344 203.195312 C 89.039062 205.863281 86.472656 208.1875 83.539062 210.101562 C 82.054688 211.019531 80.480469 211.859375 78.78125 212.496094 C 77.078125 213.097656 75.273438 213.59375 73.378906 213.734375 C 71.488281 213.957031 69.542969 213.792969 67.582031 213.46875 C 66.625 213.246094 65.652344 213 64.695312 212.6875 C 63.773438 212.316406 62.800781 211.984375 61.90625 211.53125 C 58.273438 209.753906 55.050781 207.15625 52.347656 204.277344 C 49.617188 201.394531 47.207031 198.234375 45.152344 194.96875 C 44.738281 194.316406 44.324219 193.664062 43.914062 193.003906 L 25.265625 232.882812 L 45.46875 232.882812 L 51.6875 218.042969 L 73.988281 218.042969 L 74.488281 232.882812 L 93.453125 232.882812 L 91.152344 203.195312 " fill-opacity="1" fill-rule="nonzero"/></g><path fill="#b08441" d="M 58.808594 201.144531 C 57.429688 199.570312 56.191406 197.863281 55.050781 196.09375 C 52.898438 192.710938 51.191406 189.027344 49.84375 185.214844 C 49.558594 184.222656 49.238281 183.234375 48.945312 182.25 C 48.675781 181.292969 48.417969 180.335938 48.234375 179.359375 C 48.03125 178.363281 47.757812 177.386719 47.609375 176.382812 L 47.175781 173.363281 C 47.105469 172.867188 47.011719 172.371094 46.96875 171.859375 L 46.863281 170.335938 L 46.640625 167.304688 C 46.570312 165.269531 46.617188 163.238281 46.605469 161.214844 L 43.199219 161.214844 C 43.203125 161.296875 43.210938 161.386719 43.21875 161.464844 C 43.359375 163.511719 43.46875 165.546875 43.671875 167.570312 L 44.113281 170.734375 L 44.335938 172.304688 C 44.414062 172.824219 44.546875 173.339844 44.648438 173.859375 L 45.328125 176.953125 C 45.550781 177.984375 45.90625 178.984375 46.183594 179.996094 C 46.605469 181.605469 47.214844 183.148438 47.804688 184.691406 C 47.960938 185.105469 48.117188 185.511719 48.269531 185.929688 C 49.929688 189.757812 51.941406 193.390625 54.378906 196.65625 C 56.800781 199.894531 59.597656 202.859375 62.855469 205.058594 C 61.390625 203.890625 60.039062 202.570312 58.808594 201.144531 " fill-opacity="1" fill-rule="nonzero"/><path fill="#b08441" d="M 45.988281 155.453125 L 46.164062 151.027344 L 51.816406 152.105469 L 50.441406 149.328125 L 46.320312 148.457031 L 46.554688 143.820312 L 44.902344 142.113281 L 43.246094 143.820312 L 43.488281 148.457031 L 39.363281 149.328125 L 37.988281 152.105469 L 43.640625 151.027344 L 43.816406 155.453125 L 42.167969 157.410156 L 42.074219 158.910156 L 44.902344 158.191406 L 47.730469 158.910156 L 47.636719 157.410156 L 45.988281 155.453125 " fill-opacity="1" fill-rule="nonzero"/><g fill="#0f6b4d" fill-opacity="1"><g transform="translate(102.663243, 189.689884)"><g><path d="M 3.671875 0 C 3.109375 -1.65625 2.644531 -3.210938 2.28125 -4.671875 C 1.925781 -6.128906 1.660156 -7.628906 1.484375 -9.171875 C 1.304688 -10.710938 1.21875 -12.425781 1.21875 -14.3125 C 1.21875 -16.226562 1.460938 -18.144531 1.953125 -20.0625 C 2.441406 -21.988281 3.171875 -23.800781 4.140625 -25.5 C 5.109375 -27.207031 6.296875 -28.722656 7.703125 -30.046875 C 9.117188 -31.367188 10.757812 -32.40625 12.625 -33.15625 C 14.5 -33.914062 16.566406 -34.296875 18.828125 -34.296875 C 19.921875 -34.296875 20.992188 -34.171875 22.046875 -33.921875 C 23.097656 -33.679688 24.03125 -33.328125 24.84375 -32.859375 C 25.664062 -32.398438 26.238281 -31.851562 26.5625 -31.21875 L 26.5625 -4.375 C 26.5625 -3.507812 26.664062 -2.648438 26.875 -1.796875 C 27.082031 -0.953125 27.390625 -0.351562 27.796875 0 L 17.46875 0 C 17.863281 -0.351562 18.164062 -0.945312 18.375 -1.78125 C 18.582031 -2.625 18.6875 -3.476562 18.6875 -4.34375 L 18.6875 -10.078125 L 9.3125 -10.078125 C 9.5625 -8.097656 10.023438 -6.285156 10.703125 -4.640625 C 11.378906 -2.992188 12.269531 -1.445312 13.375 0 Z M 9.34375 -16.734375 L 18.6875 -16.734375 L 18.71875 -27.09375 C 17.1875 -27.09375 15.867188 -26.773438 14.765625 -26.140625 C 13.671875 -25.515625 12.75 -24.679688 12 -23.640625 C 11.257812 -22.597656 10.675781 -21.476562 10.25 -20.28125 C 9.832031 -19.082031 9.53125 -17.898438 9.34375 -16.734375 Z M 9.34375 -16.734375 "/></g></g></g><g fill="#0f6b4d" fill-opacity="1"><g transform="translate(130.796893, 189.689884)"><g><path d="M 0.703125 0 C 1.097656 -0.351562 1.398438 -0.953125 1.609375 -1.796875 C 1.816406 -2.648438 1.921875 -3.507812 1.921875 -4.375 L 1.921875 -29.40625 C 1.921875 -30.289062 1.816406 -31.148438 1.609375 -31.984375 C 1.398438 -32.828125 1.097656 -33.425781 0.703125 -33.78125 L 12.21875 -33.78125 C 14.613281 -33.78125 16.75 -33.351562 18.625 -32.5 C 20.507812 -31.644531 22.101562 -30.453125 23.40625 -28.921875 C 24.71875 -27.398438 25.71875 -25.609375 26.40625 -23.546875 C 27.09375 -21.492188 27.4375 -19.269531 27.4375 -16.875 C 27.4375 -14.488281 27.09375 -12.269531 26.40625 -10.21875 C 25.71875 -8.164062 24.71875 -6.375 23.40625 -4.84375 C 22.101562 -3.320312 20.507812 -2.132812 18.625 -1.28125 C 16.75 -0.425781 14.613281 0 12.21875 0 Z M 9.796875 -6.65625 L 12.953125 -6.65625 C 14.140625 -6.65625 15.234375 -7.066406 16.234375 -7.890625 C 17.242188 -8.722656 18.050781 -9.898438 18.65625 -11.421875 C 19.257812 -12.953125 19.5625 -14.769531 19.5625 -16.875 C 19.5625 -19 19.257812 -20.820312 18.65625 -22.34375 C 18.050781 -23.875 17.242188 -25.050781 16.234375 -25.875 C 15.234375 -26.707031 14.140625 -27.125 12.953125 -27.125 L 9.796875 -27.125 Z M 9.796875 -6.65625 "/></g></g></g><g fill="#0f6b4d" fill-opacity="1"><g transform="translate(159.455415, 189.689884)"><g><path d="M 3.671875 0 C 3.109375 -1.65625 2.644531 -3.210938 2.28125 -4.671875 C 1.925781 -6.128906 1.660156 -7.628906 1.484375 -9.171875 C 1.304688 -10.710938 1.21875 -12.425781 1.21875 -14.3125 C 1.21875 -16.226562 1.460938 -18.144531 1.953125 -20.0625 C 2.441406 -21.988281 3.171875 -23.800781 4.140625 -25.5 C 5.109375 -27.207031 6.296875 -28.722656 7.703125 -30.046875 C 9.117188 -31.367188 10.757812 -32.40625 12.625 -33.15625 C 14.5 -33.914062 16.566406 -34.296875 18.828125 -34.296875 C 19.921875 -34.296875 20.992188 -34.171875 22.046875 -33.921875 C 23.097656 -33.679688 24.03125 -33.328125 24.84375 -32.859375 C 25.664062 -32.398438 26.238281 -31.851562 26.5625 -31.21875 L 26.5625 -4.375 C 26.5625 -3.507812 26.664062 -2.648438 26.875 -1.796875 C 27.082031 -0.953125 27.390625 -0.351562 27.796875 0 L 17.46875 0 C 17.863281 -0.351562 18.164062 -0.945312 18.375 -1.78125 C 18.582031 -2.625 18.6875 -3.476562 18.6875 -4.34375 L 18.6875 -10.078125 L 9.3125 -10.078125 C 9.5625 -8.097656 10.023438 -6.285156 10.703125 -4.640625 C 11.378906 -2.992188 12.269531 -1.445312 13.375 0 Z M 9.34375 -16.734375 L 18.6875 -16.734375 L 18.71875 -27.09375 C 17.1875 -27.09375 15.867188 -26.773438 14.765625 -26.140625 C 13.671875 -25.515625 12.75 -24.679688 12 -23.640625 C 11.257812 -22.597656 10.675781 -21.476562 10.25 -20.28125 C 9.832031 -19.082031 9.53125 -17.898438 9.34375 -16.734375 Z M 9.34375 -16.734375 "/></g></g></g><g fill="#0f6b4d" fill-opacity="1"><g transform="translate(187.589065, 189.689884)"><g><path d="M 11.03125 0 L 0.703125 0 C 1.097656 -0.351562 1.398438 -0.945312 1.609375 -1.78125 C 1.816406 -2.625 1.921875 -3.476562 1.921875 -4.34375 L 1.921875 -29.4375 C 1.921875 -30.320312 1.816406 -31.175781 1.609375 -32 C 1.398438 -32.832031 1.097656 -33.425781 0.703125 -33.78125 L 9.796875 -33.78125 L 17.5625 -15.953125 L 25.3125 -33.78125 L 34.40625 -33.78125 C 34.007812 -33.425781 33.707031 -32.832031 33.5 -32 C 33.289062 -31.175781 33.1875 -30.320312 33.1875 -29.4375 L 33.1875 -4.34375 C 33.1875 -3.476562 33.289062 -2.625 33.5 -1.78125 C 33.707031 -0.945312 34.007812 -0.351562 34.40625 0 L 24.078125 0 C 24.472656 -0.351562 24.773438 -0.953125 24.984375 -1.796875 C 25.203125 -2.648438 25.3125 -3.507812 25.3125 -4.375 L 25.3125 -19.5 L 17.5625 -0.984375 L 9.796875 -19.59375 L 9.796875 -4.375 C 9.796875 -3.507812 9.898438 -2.648438 10.109375 -1.796875 C 10.328125 -0.953125 10.632812 -0.351562 11.03125 0 Z M 11.03125 0 "/></g></g></g><g fill="#0f6b4d" fill-opacity="1"><g transform="translate(222.686135, 189.689884)"><g/></g></g><g fill="#0f6b4d" fill-opacity="1"><g transform="translate(233.183766, 189.689884)"><g><path d="M 0.703125 -33.78125 L 25.90625 -33.78125 L 25.90625 -25.171875 C 25.34375 -25.703125 24.691406 -26.109375 23.953125 -26.390625 C 23.222656 -26.671875 22.492188 -26.863281 21.765625 -26.96875 C 21.046875 -27.070312 20.394531 -27.125 19.8125 -27.125 L 17.1875 -27.125 L 17.1875 -4.34375 C 17.1875 -3.476562 17.289062 -2.625 17.5 -1.78125 C 17.707031 -0.945312 18.007812 -0.351562 18.40625 0 L 8.078125 0 C 8.484375 -0.351562 8.789062 -0.953125 9 -1.796875 C 9.207031 -2.648438 9.3125 -3.507812 9.3125 -4.375 L 9.3125 -27.125 L 6.796875 -27.125 C 6.234375 -27.125 5.582031 -27.070312 4.84375 -26.96875 C 4.113281 -26.863281 3.382812 -26.671875 2.65625 -26.390625 C 1.9375 -26.109375 1.285156 -25.703125 0.703125 -25.171875 Z M 0.703125 -33.78125 "/></g></g></g><g fill="#0f6b4d" fill-opacity="1"><g transform="translate(259.777762, 189.689884)"><g><path d="M 1.21875 -16.875 C 1.21875 -19.269531 1.523438 -21.523438 2.140625 -23.640625 C 2.765625 -25.753906 3.710938 -27.609375 4.984375 -29.203125 C 6.253906 -30.804688 7.894531 -32.054688 9.90625 -32.953125 C 11.914062 -33.847656 14.296875 -34.296875 17.046875 -34.296875 C 19.816406 -34.296875 22.195312 -33.847656 24.1875 -32.953125 C 26.1875 -32.054688 27.820312 -30.804688 29.09375 -29.203125 C 30.375 -27.609375 31.320312 -25.753906 31.9375 -23.640625 C 32.550781 -21.523438 32.859375 -19.269531 32.859375 -16.875 C 32.859375 -14.46875 32.550781 -12.210938 31.9375 -10.109375 C 31.320312 -8.015625 30.375 -6.164062 29.09375 -4.5625 C 27.820312 -2.96875 26.1875 -1.71875 24.1875 -0.8125 C 22.195312 0.0820312 19.816406 0.53125 17.046875 0.53125 C 14.296875 0.53125 11.914062 0.0820312 9.90625 -0.8125 C 7.894531 -1.71875 6.253906 -2.96875 4.984375 -4.5625 C 3.710938 -6.164062 2.765625 -8.015625 2.140625 -10.109375 C 1.523438 -12.210938 1.21875 -14.46875 1.21875 -16.875 Z M 9.09375 -16.90625 C 9.09375 -14.96875 9.367188 -13.1875 9.921875 -11.5625 C 10.472656 -9.945312 11.332031 -8.660156 12.5 -7.703125 C 13.664062 -6.742188 15.171875 -6.265625 17.015625 -6.265625 C 18.878906 -6.265625 20.398438 -6.742188 21.578125 -7.703125 C 22.753906 -8.660156 23.613281 -9.945312 24.15625 -11.5625 C 24.707031 -13.1875 24.984375 -14.96875 24.984375 -16.90625 C 24.984375 -18.863281 24.707031 -20.644531 24.15625 -22.25 C 23.613281 -23.863281 22.753906 -25.148438 21.578125 -26.109375 C 20.398438 -27.066406 18.878906 -27.546875 17.015625 -27.546875 C 15.171875 -27.546875 13.664062 -27.066406 12.5 -26.109375 C 11.332031 -25.148438 10.472656 -23.863281 9.921875 -22.25 C 9.367188 -20.644531 9.09375 -18.863281 9.09375 -16.90625 Z M 9.09375 -16.90625 "/></g></g></g><g fill="#0f6b4d" fill-opacity="1"><g transform="translate(293.860061, 189.689884)"><g><path d="M 0.34375 -33.78125 L 10.671875 -33.78125 C 10.273438 -33.425781 9.972656 -32.828125 9.765625 -31.984375 C 9.554688 -31.148438 9.453125 -30.289062 9.453125 -29.40625 L 9.453125 -13.40625 C 9.453125 -12.144531 9.535156 -11.003906 9.703125 -9.984375 C 9.878906 -8.972656 10.28125 -8.171875 10.90625 -7.578125 C 11.539062 -6.984375 12.5625 -6.6875 13.96875 -6.6875 C 15.363281 -6.6875 16.375 -6.984375 17 -7.578125 C 17.632812 -8.171875 18.039062 -8.972656 18.21875 -9.984375 C 18.394531 -11.003906 18.484375 -12.144531 18.484375 -13.40625 L 18.484375 -29.40625 C 18.484375 -30.289062 18.375 -31.148438 18.15625 -31.984375 C 17.945312 -32.828125 17.644531 -33.425781 17.25 -33.78125 L 27.578125 -33.78125 C 27.179688 -33.425781 26.878906 -32.832031 26.671875 -32 C 26.460938 -31.175781 26.359375 -30.320312 26.359375 -29.4375 L 26.359375 -10.75 C 26.359375 -8.71875 26.054688 -7.023438 25.453125 -5.671875 C 24.859375 -4.316406 24.09375 -3.222656 23.15625 -2.390625 C 22.226562 -1.566406 21.234375 -0.941406 20.171875 -0.515625 C 19.109375 -0.0976562 18.109375 0.179688 17.171875 0.328125 C 16.242188 0.484375 15.484375 0.5625 14.890625 0.5625 C 14.296875 0.5625 14 0.5625 14 0.5625 C 14 0.5625 13.695312 0.5625 13.09375 0.5625 C 12.488281 0.5625 11.710938 0.484375 10.765625 0.328125 C 9.816406 0.179688 8.816406 -0.0976562 7.765625 -0.515625 C 6.710938 -0.941406 5.710938 -1.566406 4.765625 -2.390625 C 3.828125 -3.222656 3.0625 -4.316406 2.46875 -5.671875 C 1.875 -7.023438 1.578125 -8.71875 1.578125 -10.75 L 1.578125 -29.4375 C 1.578125 -30.320312 1.46875 -31.175781 1.25 -32 C 1.039062 -32.832031 0.738281 -33.425781 0.34375 -33.78125 Z M 0.34375 -33.78125 "/></g></g></g><g fill="#0f6b4d" fill-opacity="1"><g transform="translate(321.783758, 189.689884)"><g><path d="M 1.921875 -29.40625 C 1.921875 -30.289062 1.816406 -31.148438 1.609375 -31.984375 C 1.398438 -32.828125 1.097656 -33.425781 0.703125 -33.78125 L 15.328125 -33.78125 C 16.703125 -33.78125 18.082031 -33.550781 19.46875 -33.09375 C 20.863281 -32.632812 22.128906 -31.953125 23.265625 -31.046875 C 24.410156 -30.140625 25.328125 -29.015625 26.015625 -27.671875 C 26.710938 -26.328125 27.0625 -24.769531 27.0625 -23 C 27.0625 -20.570312 26.398438 -18.550781 25.078125 -16.9375 C 23.753906 -15.332031 22.054688 -14.210938 19.984375 -13.578125 L 21.984375 -8.296875 C 22.960938 -5.703125 23.867188 -3.75 24.703125 -2.4375 C 25.546875 -1.132812 26.296875 -0.320312 26.953125 0 L 15.40625 0 C 15.65625 -0.300781 15.796875 -0.734375 15.828125 -1.296875 C 15.867188 -1.859375 15.726562 -2.535156 15.40625 -3.328125 L 9.796875 -18.859375 L 9.796875 -4.34375 C 9.796875 -3.476562 9.898438 -2.625 10.109375 -1.78125 C 10.328125 -0.945312 10.632812 -0.351562 11.03125 0 L 0.703125 0 C 1.097656 -0.351562 1.398438 -0.953125 1.609375 -1.796875 C 1.816406 -2.648438 1.921875 -3.507812 1.921875 -4.375 Z M 9.796875 -18.859375 L 14.8125 -18.859375 C 15.8125 -18.859375 16.632812 -19.066406 17.28125 -19.484375 C 17.9375 -19.910156 18.425781 -20.441406 18.75 -21.078125 C 19.082031 -21.722656 19.25 -22.363281 19.25 -23 C 19.25 -24.09375 18.878906 -25.050781 18.140625 -25.875 C 17.410156 -26.707031 16.320312 -27.125 14.875 -27.125 L 9.796875 -27.125 Z M 9.796875 -18.859375 "/></g></g></g><g fill="#b08441" fill-opacity="1"><g transform="translate(102.663243, 218.158711)"><g><path d="M 9.875 -2.84375 L 4.0625 -2.84375 L 3.0625 0 L 0.6875 0 L 5.65625 -13.921875 L 8.296875 -13.921875 L 13.28125 0 L 10.875 0 Z M 9.234375 -4.703125 L 6.984375 -11.15625 L 4.703125 -4.703125 Z M 9.234375 -4.703125 "/></g></g></g><g fill="#b08441" fill-opacity="1"><g transform="translate(116.597739, 218.158711)"><g><path d="M 3.78125 -14.796875 L 3.78125 0 L 1.5 0 L 1.5 -14.796875 Z M 3.78125 -14.796875 "/></g></g></g><g fill="#b08441" fill-opacity="1"><g transform="translate(121.875662, 218.158711)"><g><path d="M 9.953125 -8.203125 L 9.953125 -6.28125 L 1.734375 -6.28125 L 1.734375 -8.203125 Z M 9.953125 -8.203125 "/></g></g></g><g fill="#b08441" fill-opacity="1"><g transform="translate(133.571043, 218.158711)"><g><path d="M 6.046875 -13.90625 C 7.523438 -13.90625 8.816406 -13.617188 9.921875 -13.046875 C 11.035156 -12.484375 11.894531 -11.671875 12.5 -10.609375 C 13.113281 -9.546875 13.421875 -8.3125 13.421875 -6.90625 C 13.421875 -5.488281 13.113281 -4.257812 12.5 -3.21875 C 11.894531 -2.175781 11.035156 -1.378906 9.921875 -0.828125 C 8.816406 -0.273438 7.523438 0 6.046875 0 L 1.5 0 L 1.5 -13.90625 Z M 6.046875 -1.859375 C 7.671875 -1.859375 8.914062 -2.296875 9.78125 -3.171875 C 10.644531 -4.054688 11.078125 -5.300781 11.078125 -6.90625 C 11.078125 -8.507812 10.644531 -9.765625 9.78125 -10.671875 C 8.914062 -11.585938 7.671875 -12.046875 6.046875 -12.046875 L 3.78125 -12.046875 L 3.78125 -1.859375 Z M 6.046875 -1.859375 "/></g></g></g><g fill="#b08441" fill-opacity="1"><g transform="translate(147.745454, 218.158711)"><g><path d="M 6.28125 0.1875 C 5.238281 0.1875 4.296875 -0.046875 3.453125 -0.515625 C 2.617188 -0.992188 1.960938 -1.660156 1.484375 -2.515625 C 1.003906 -3.378906 0.765625 -4.378906 0.765625 -5.515625 C 0.765625 -6.640625 1.007812 -7.632812 1.5 -8.5 C 1.988281 -9.363281 2.660156 -10.03125 3.515625 -10.5 C 4.367188 -10.96875 5.320312 -11.203125 6.375 -11.203125 C 7.425781 -11.203125 8.378906 -10.96875 9.234375 -10.5 C 10.085938 -10.03125 10.757812 -9.363281 11.25 -8.5 C 11.75 -7.632812 12 -6.640625 12 -5.515625 C 12 -4.398438 11.742188 -3.40625 11.234375 -2.53125 C 10.734375 -1.664062 10.046875 -0.992188 9.171875 -0.515625 C 8.296875 -0.046875 7.332031 0.1875 6.28125 0.1875 Z M 6.28125 -1.796875 C 6.863281 -1.796875 7.410156 -1.9375 7.921875 -2.21875 C 8.441406 -2.5 8.859375 -2.914062 9.171875 -3.46875 C 9.492188 -4.03125 9.65625 -4.710938 9.65625 -5.515625 C 9.65625 -6.316406 9.5 -6.992188 9.1875 -7.546875 C 8.882812 -8.097656 8.476562 -8.515625 7.96875 -8.796875 C 7.46875 -9.078125 6.925781 -9.21875 6.34375 -9.21875 C 5.75 -9.21875 5.203125 -9.078125 4.703125 -8.796875 C 4.203125 -8.515625 3.804688 -8.097656 3.515625 -7.546875 C 3.222656 -6.992188 3.078125 -6.316406 3.078125 -5.515625 C 3.078125 -4.328125 3.378906 -3.410156 3.984375 -2.765625 C 4.597656 -2.117188 5.363281 -1.796875 6.28125 -1.796875 Z M 6.28125 -1.796875 "/></g></g></g><g fill="#b08441" fill-opacity="1"><g transform="translate(160.50042, 218.158711)"><g><path d="M 3.78125 -9.421875 C 4.113281 -9.984375 4.554688 -10.421875 5.109375 -10.734375 C 5.660156 -11.046875 6.316406 -11.203125 7.078125 -11.203125 L 7.078125 -8.84375 L 6.5 -8.84375 C 5.601562 -8.84375 4.925781 -8.613281 4.46875 -8.15625 C 4.007812 -7.707031 3.78125 -6.921875 3.78125 -5.796875 L 3.78125 0 L 1.5 0 L 1.5 -11.015625 L 3.78125 -11.015625 Z M 3.78125 -9.421875 "/></g></g></g><g fill="#b08441" fill-opacity="1"><g transform="translate(168.17739, 218.158711)"><g><path d="M 0.734375 -5.5625 C 0.734375 -6.664062 0.960938 -7.644531 1.421875 -8.5 C 1.890625 -9.351562 2.519531 -10.015625 3.3125 -10.484375 C 4.101562 -10.960938 4.976562 -11.203125 5.9375 -11.203125 C 6.800781 -11.203125 7.554688 -11.03125 8.203125 -10.6875 C 8.859375 -10.351562 9.378906 -9.929688 9.765625 -9.421875 L 9.765625 -11.015625 L 12.0625 -11.015625 L 12.0625 0 L 9.765625 0 L 9.765625 -1.640625 C 9.378906 -1.117188 8.851562 -0.679688 8.1875 -0.328125 C 7.519531 0.015625 6.757812 0.1875 5.90625 0.1875 C 4.957031 0.1875 4.085938 -0.0546875 3.296875 -0.546875 C 2.515625 -1.035156 1.890625 -1.71875 1.421875 -2.59375 C 0.960938 -3.46875 0.734375 -4.457031 0.734375 -5.5625 Z M 9.765625 -5.515625 C 9.765625 -6.273438 9.601562 -6.9375 9.28125 -7.5 C 8.96875 -8.0625 8.554688 -8.488281 8.046875 -8.78125 C 7.546875 -9.070312 7.003906 -9.21875 6.421875 -9.21875 C 5.835938 -9.21875 5.289062 -9.070312 4.78125 -8.78125 C 4.269531 -8.5 3.859375 -8.082031 3.546875 -7.53125 C 3.234375 -6.976562 3.078125 -6.320312 3.078125 -5.5625 C 3.078125 -4.800781 3.234375 -4.132812 3.546875 -3.5625 C 3.859375 -2.988281 4.269531 -2.550781 4.78125 -2.25 C 5.300781 -1.945312 5.847656 -1.796875 6.421875 -1.796875 C 7.003906 -1.796875 7.546875 -1.941406 8.046875 -2.234375 C 8.554688 -2.535156 8.96875 -2.96875 9.28125 -3.53125 C 9.601562 -4.09375 9.765625 -4.753906 9.765625 -5.515625 Z M 9.765625 -5.515625 "/></g></g></g><g fill="#b08441" fill-opacity="1"><g transform="translate(181.732047, 218.158711)"><g><path d="M 3.78125 -9.421875 C 4.113281 -9.984375 4.554688 -10.421875 5.109375 -10.734375 C 5.660156 -11.046875 6.316406 -11.203125 7.078125 -11.203125 L 7.078125 -8.84375 L 6.5 -8.84375 C 5.601562 -8.84375 4.925781 -8.613281 4.46875 -8.15625 C 4.007812 -7.707031 3.78125 -6.921875 3.78125 -5.796875 L 3.78125 0 L 1.5 0 L 1.5 -11.015625 L 3.78125 -11.015625 Z M 3.78125 -9.421875 "/></g></g></g><g fill="#b08441" fill-opacity="1"><g transform="translate(189.409017, 218.158711)"><g/></g></g><g fill="#b08441" fill-opacity="1"><g transform="translate(194.606969, 218.158711)"><g><path d="M 9.875 -2.84375 L 4.0625 -2.84375 L 3.0625 0 L 0.6875 0 L 5.65625 -13.921875 L 8.296875 -13.921875 L 13.28125 0 L 10.875 0 Z M 9.234375 -4.703125 L 6.984375 -11.15625 L 4.703125 -4.703125 Z M 9.234375 -4.703125 "/></g></g></g><g fill="#b08441" fill-opacity="1"><g transform="translate(208.541466, 218.158711)"><g><path d="M 3.78125 -14.796875 L 3.78125 0 L 1.5 0 L 1.5 -14.796875 Z M 3.78125 -14.796875 "/></g></g></g><g fill="#b08441" fill-opacity="1"><g transform="translate(213.819389, 218.158711)"><g><path d="M 9.953125 -8.203125 L 9.953125 -6.28125 L 1.734375 -6.28125 L 1.734375 -8.203125 Z M 9.953125 -8.203125 "/></g></g></g><g fill="#b08441" fill-opacity="1"><g transform="translate(225.51477, 218.158711)"><g><path d="M 16.140625 -13.90625 L 16.140625 0 L 13.859375 0 L 13.859375 -9.515625 L 9.625 0 L 8.046875 0 L 3.78125 -9.515625 L 3.78125 0 L 1.5 0 L 1.5 -13.90625 L 3.953125 -13.90625 L 8.84375 -3 L 13.703125 -13.90625 Z M 16.140625 -13.90625 "/></g></g></g><g fill="#b08441" fill-opacity="1"><g transform="translate(243.147814, 218.158711)"><g><path d="M 0.734375 -5.5625 C 0.734375 -6.664062 0.960938 -7.644531 1.421875 -8.5 C 1.890625 -9.351562 2.519531 -10.015625 3.3125 -10.484375 C 4.101562 -10.960938 4.976562 -11.203125 5.9375 -11.203125 C 6.800781 -11.203125 7.554688 -11.03125 8.203125 -10.6875 C 8.859375 -10.351562 9.378906 -9.929688 9.765625 -9.421875 L 9.765625 -11.015625 L 12.0625 -11.015625 L 12.0625 0 L 9.765625 0 L 9.765625 -1.640625 C 9.378906 -1.117188 8.851562 -0.679688 8.1875 -0.328125 C 7.519531 0.015625 6.757812 0.1875 5.90625 0.1875 C 4.957031 0.1875 4.085938 -0.0546875 3.296875 -0.546875 C 2.515625 -1.035156 1.890625 -1.71875 1.421875 -2.59375 C 0.960938 -3.46875 0.734375 -4.457031 0.734375 -5.5625 Z M 9.765625 -5.515625 C 9.765625 -6.273438 9.601562 -6.9375 9.28125 -7.5 C 8.96875 -8.0625 8.554688 -8.488281 8.046875 -8.78125 C 7.546875 -9.070312 7.003906 -9.21875 6.421875 -9.21875 C 5.835938 -9.21875 5.289062 -9.070312 4.78125 -8.78125 C 4.269531 -8.5 3.859375 -8.082031 3.546875 -7.53125 C 3.234375 -6.976562 3.078125 -6.320312 3.078125 -5.5625 C 3.078125 -4.800781 3.234375 -4.132812 3.546875 -3.5625 C 3.859375 -2.988281 4.269531 -2.550781 4.78125 -2.25 C 5.300781 -1.945312 5.847656 -1.796875 6.421875 -1.796875 C 7.003906 -1.796875 7.546875 -1.941406 8.046875 -2.234375 C 8.554688 -2.535156 8.96875 -2.96875 9.28125 -3.53125 C 9.601562 -4.09375 9.765625 -4.753906 9.765625 -5.515625 Z M 9.765625 -5.515625 "/></g></g></g><g fill="#b08441" fill-opacity="1"><g transform="translate(256.70247, 218.158711)"><g><path d="M 5.859375 -5.5 L 10.9375 0 L 7.859375 0 L 3.78125 -4.734375 L 3.78125 0 L 1.5 0 L 1.5 -14.796875 L 3.78125 -14.796875 L 3.78125 -6.203125 L 7.78125 -11.015625 L 10.9375 -11.015625 Z M 5.859375 -5.5 "/></g></g></g><g fill="#b08441" fill-opacity="1"><g transform="translate(267.778095, 218.158711)"><g><path d="M 7.0625 -11.203125 C 7.925781 -11.203125 8.703125 -11.019531 9.390625 -10.65625 C 10.078125 -10.300781 10.613281 -9.769531 11 -9.0625 C 11.382812 -8.351562 11.578125 -7.5 11.578125 -6.5 L 11.578125 0 L 9.3125 0 L 9.3125 -6.15625 C 9.3125 -7.144531 9.066406 -7.898438 8.578125 -8.421875 C 8.085938 -8.953125 7.414062 -9.21875 6.5625 -9.21875 C 5.707031 -9.21875 5.03125 -8.953125 4.53125 -8.421875 C 4.03125 -7.898438 3.78125 -7.144531 3.78125 -6.15625 L 3.78125 0 L 1.5 0 L 1.5 -11.015625 L 3.78125 -11.015625 L 3.78125 -9.765625 C 4.15625 -10.210938 4.628906 -10.5625 5.203125 -10.8125 C 5.785156 -11.070312 6.40625 -11.203125 7.0625 -11.203125 Z M 7.0625 -11.203125 "/></g></g></g><g fill="#b08441" fill-opacity="1"><g transform="translate(280.752971, 218.158711)"><g><path d="M 6.28125 0.1875 C 5.238281 0.1875 4.296875 -0.046875 3.453125 -0.515625 C 2.617188 -0.992188 1.960938 -1.660156 1.484375 -2.515625 C 1.003906 -3.378906 0.765625 -4.378906 0.765625 -5.515625 C 0.765625 -6.640625 1.007812 -7.632812 1.5 -8.5 C 1.988281 -9.363281 2.660156 -10.03125 3.515625 -10.5 C 4.367188 -10.96875 5.320312 -11.203125 6.375 -11.203125 C 7.425781 -11.203125 8.378906 -10.96875 9.234375 -10.5 C 10.085938 -10.03125 10.757812 -9.363281 11.25 -8.5 C 11.75 -7.632812 12 -6.640625 12 -5.515625 C 12 -4.398438 11.742188 -3.40625 11.234375 -2.53125 C 10.734375 -1.664062 10.046875 -0.992188 9.171875 -0.515625 C 8.296875 -0.046875 7.332031 0.1875 6.28125 0.1875 Z M 6.28125 -1.796875 C 6.863281 -1.796875 7.410156 -1.9375 7.921875 -2.21875 C 8.441406 -2.5 8.859375 -2.914062 9.171875 -3.46875 C 9.492188 -4.03125 9.65625 -4.710938 9.65625 -5.515625 C 9.65625 -6.316406 9.5 -6.992188 9.1875 -7.546875 C 8.882812 -8.097656 8.476562 -8.515625 7.96875 -8.796875 C 7.46875 -9.078125 6.925781 -9.21875 6.34375 -9.21875 C 5.75 -9.21875 5.203125 -9.078125 4.703125 -8.796875 C 4.203125 -8.515625 3.804688 -8.097656 3.515625 -7.546875 C 3.222656 -6.992188 3.078125 -6.316406 3.078125 -5.515625 C 3.078125 -4.328125 3.378906 -3.410156 3.984375 -2.765625 C 4.597656 -2.117188 5.363281 -1.796875 6.28125 -1.796875 Z M 6.28125 -1.796875 "/></g></g></g><g fill="#b08441" fill-opacity="1"><g transform="translate(293.507936, 218.158711)"><g><path d="M 7.0625 -11.203125 C 7.925781 -11.203125 8.703125 -11.019531 9.390625 -10.65625 C 10.078125 -10.300781 10.613281 -9.769531 11 -9.0625 C 11.382812 -8.351562 11.578125 -7.5 11.578125 -6.5 L 11.578125 0 L 9.3125 0 L 9.3125 -6.15625 C 9.3125 -7.144531 9.066406 -7.898438 8.578125 -8.421875 C 8.085938 -8.953125 7.414062 -9.21875 6.5625 -9.21875 C 5.707031 -9.21875 5.03125 -8.953125 4.53125 -8.421875 C 4.03125 -7.898438 3.78125 -7.144531 3.78125 -6.15625 L 3.78125 0 L 1.5 0 L 1.5 -11.015625 L 3.78125 -11.015625 L 3.78125 -9.765625 C 4.15625 -10.210938 4.628906 -10.5625 5.203125 -10.8125 C 5.785156 -11.070312 6.40625 -11.203125 7.0625 -11.203125 Z M 7.0625 -11.203125 "/></g></g></g><g fill="#b08441" fill-opacity="1"><g transform="translate(306.482823, 218.158711)"><g><path d="M 0.734375 -5.5625 C 0.734375 -6.664062 0.960938 -7.644531 1.421875 -8.5 C 1.890625 -9.351562 2.519531 -10.015625 3.3125 -10.484375 C 4.101562 -10.960938 4.976562 -11.203125 5.9375 -11.203125 C 6.800781 -11.203125 7.554688 -11.03125 8.203125 -10.6875 C 8.859375 -10.351562 9.378906 -9.929688 9.765625 -9.421875 L 9.765625 -11.015625 L 12.0625 -11.015625 L 12.0625 0 L 9.765625 0 L 9.765625 -1.640625 C 9.378906 -1.117188 8.851562 -0.679688 8.1875 -0.328125 C 7.519531 0.015625 6.757812 0.1875 5.90625 0.1875 C 4.957031 0.1875 4.085938 -0.0546875 3.296875 -0.546875 C 2.515625 -1.035156 1.890625 -1.71875 1.421875 -2.59375 C 0.960938 -3.46875 0.734375 -4.457031 0.734375 -5.5625 Z M 9.765625 -5.515625 C 9.765625 -6.273438 9.601562 -6.9375 9.28125 -7.5 C 8.96875 -8.0625 8.554688 -8.488281 8.046875 -8.78125 C 7.546875 -9.070312 7.003906 -9.21875 6.421875 -9.21875 C 5.835938 -9.21875 5.289062 -9.070312 4.78125 -8.78125 C 4.269531 -8.5 3.859375 -8.082031 3.546875 -7.53125 C 3.234375 -6.976562 3.078125 -6.320312 3.078125 -5.5625 C 3.078125 -4.800781 3.234375 -4.132812 3.546875 -3.5625 C 3.859375 -2.988281 4.269531 -2.550781 4.78125 -2.25 C 5.300781 -1.945312 5.847656 -1.796875 6.421875 -1.796875 C 7.003906 -1.796875 7.546875 -1.941406 8.046875 -2.234375 C 8.554688 -2.535156 8.96875 -2.96875 9.28125 -3.53125 C 9.601562 -4.09375 9.765625 -4.753906 9.765625 -5.515625 Z M 9.765625 -5.515625 "/></g></g></g></svg>